<?xml version="1.0" standalone="no"?>
<!DOCTYPE svg PUBLIC "-//W3C//DTD SVG 20010904//EN"
 "http://www.w3.org/TR/2001/REC-SVG-20010904/DTD/svg10.dtd">
<svg version="1.0" xmlns="http://www.w3.org/2000/svg"
 width="800.000000pt" height="800.000000pt" viewBox="0 0 800.000000 800.000000"
 preserveAspectRatio="xMidYMid meet">
<metadata>
Created by potrace 1.14, written by Peter Selinger 2001-2017
</metadata>
<g transform="translate(0.000000,800.000000) scale(0.100000,-0.100000)"
fill="#000000" stroke="none">
<path d="M5615 7576 c-6 -6 -94 -112 -195 -236 -102 -124 -192 -234 -201 -245
-28 -33 -257 -311 -519 -631 -135 -164 -253 -307 -262 -318 -10 -12 -66 -79
-124 -151 -58 -71 -121 -148 -139 -170 -44 -52 -237 -287 -284 -344 -20 -25
-50 -61 -66 -80 -17 -20 -48 -58 -70 -86 -22 -27 -42 -52 -45 -55 -5 -4 -23
-27 -111 -135 -10 -11 -61 -74 -116 -140 -54 -66 -110 -134 -123 -151 -44 -55
-664 -809 -670 -814 -3 -3 -95 -114 -203 -247 -109 -133 -203 -248 -210 -255
-15 -16 -71 -89 -80 -103 -4 -7 99 -11 316 -12 1328 -5 1348 -6 1341 -25 -3
-10 -45 -100 -93 -201 -49 -100 -111 -229 -138 -287 -28 -58 -88 -181 -133
-275 -45 -93 -108 -224 -140 -290 -32 -66 -95 -196 -140 -290 -45 -93 -104
-215 -130 -270 -26 -55 -83 -172 -125 -260 -87 -179 -191 -395 -285 -590 -34
-71 -102 -212 -151 -313 -88 -181 -102 -215 -74 -178 7 10 32 39 53 65 73 84
234 275 276 325 23 27 70 84 106 126 36 42 85 101 110 130 25 29 50 58 55 64
6 6 44 52 85 101 41 50 84 101 96 115 36 42 418 494 434 514 8 10 20 24 27 30
10 11 92 110 133 160 8 10 20 23 25 30 6 6 73 85 150 176 77 91 142 167 145
170 3 3 39 46 80 95 41 50 85 101 96 115 12 14 77 90 144 170 67 80 132 156
143 170 12 14 44 52 72 85 27 33 52 62 55 65 3 3 52 61 110 130 58 69 115 136
126 150 20 22 239 281 683 808 80 96 149 179 153 186 5 9 -16 12 -90 10 -131
-3 -607 -13 -934 -20 -148 -3 -268 -2 -268 1 0 3 29 87 64 188 172 490 384
1091 441 1252 35 99 109 311 165 470 55 160 107 306 115 325 7 19 47 132 88
250 42 118 114 325 161 459 47 135 85 246 83 247 -1 1 -7 -3 -12 -10z"/>
</g>
</svg>
